# xmcd
#
# Track frame offsets: 
#        150
#        15508
#        38491
#        60066
#        79131
#        90456
#
# Disc length: 1414 seconds
#
# Revision: 0
# Processed by: cddbd v1.5.2PL0 Copyright (c) Steve Scherf et al.
# Submitted via: ExactAudioCopyFreeDBPlugin 1.0
#
DISCID=2f058406
DTITLE=The Brewer Boys - The Brewer Boys EP
DYEAR=2012
DGENRE=Country
TTITLE0=Something About You
TTITLE1=Cottonwood
TTITLE2=Kiss Me
TTITLE3=When I Close My Eyes (feat. Alaina Blair)
TTITLE4=It Feels Right
TTITLE5=Wishing I Had You
EXTD=
EXTT0=
EXTT1=
EXTT2=
EXTT3=
EXTT4=
EXTT5=
PLAYORDER=
